<svg xmlns="http://www.w3.org/2000/svg" viewBox="0 0 256 256"><path d="M96 46c-28 0-50 22-50 50 0 8 2 16 6 22-14 10-22 26-22 44 0 28 22 50 50 50 18 0 34-10 42-24 8 14 24 24 42 24 28 0 50-22 50-50 0-18-8-34-22-44 4-6 6-14 6-22 0-28-22-50-50-50-14 0-26 6-36 16-4-10-10-16-16-16z" fill="none" stroke="#163A5F" stroke-width="14" stroke-linecap="round" stroke-linejoin="round"/><path d="M122 64v124M82 112h40M122 144h50" fill="none" stroke="#163A5F" stroke-width="14" stroke-linecap="round" stroke-linejoin="round"/></svg>